<mxfile host="app.diagrams.net" modified="2024-02-11T20:11:16.717Z" agent="Mozilla/5.0 (Windows NT 10.0; Win64; x64) AppleWebKit/537.36 (KHTML, like Gecko) Chrome/121.0.0.0 Safari/537.36 Edg/121.0.0.0" etag="JicCysTkVYfzn80iXZyC" version="23.0.2" type="device">
  <diagram name="Page-1" id="Ek_MLR1mIpajRVWJO1nA">
    <mxGraphModel dx="2160" dy="785" grid="1" gridSize="10" guides="1" tooltips="1" connect="1" arrows="1" fold="1" page="1" pageScale="1" pageWidth="850" pageHeight="1100" math="0" shadow="0">
      <root>
        <mxCell id="0" />
        <mxCell id="1" parent="0" />
        <mxCell id="nNkdBeNE2QziG8MJv2js-1" style="edgeStyle=orthogonalEdgeStyle;rounded=0;orthogonalLoop=1;jettySize=auto;html=1;exitX=0;exitY=0.5;exitDx=0;exitDy=0;entryX=1;entryY=0.5;entryDx=0;entryDy=0;" edge="1" parent="1" source="nNkdBeNE2QziG8MJv2js-74" target="nNkdBeNE2QziG8MJv2js-6">
          <mxGeometry relative="1" as="geometry" />
        </mxCell>
        <mxCell id="nNkdBeNE2QziG8MJv2js-2" style="edgeStyle=orthogonalEdgeStyle;rounded=0;orthogonalLoop=1;jettySize=auto;html=1;exitX=1;exitY=0.5;exitDx=0;exitDy=0;entryX=0;entryY=0.5;entryDx=0;entryDy=0;" edge="1" parent="1" source="nNkdBeNE2QziG8MJv2js-3" target="nNkdBeNE2QziG8MJv2js-45">
          <mxGeometry relative="1" as="geometry" />
        </mxCell>
        <mxCell id="nNkdBeNE2QziG8MJv2js-3" value="Loading Data" style="ellipse;whiteSpace=wrap;html=1;fillColor=#dae8fc;strokeColor=#6c8ebf;" vertex="1" parent="1">
          <mxGeometry x="-792.5" y="361" width="180" height="50" as="geometry" />
        </mxCell>
        <mxCell id="nNkdBeNE2QziG8MJv2js-4" style="edgeStyle=orthogonalEdgeStyle;rounded=0;orthogonalLoop=1;jettySize=auto;html=1;exitX=0;exitY=0.5;exitDx=0;exitDy=0;entryX=0;entryY=0.5;entryDx=0;entryDy=0;" edge="1" parent="1" source="nNkdBeNE2QziG8MJv2js-6" target="nNkdBeNE2QziG8MJv2js-26">
          <mxGeometry relative="1" as="geometry" />
        </mxCell>
        <mxCell id="nNkdBeNE2QziG8MJv2js-5" style="edgeStyle=orthogonalEdgeStyle;rounded=0;orthogonalLoop=1;jettySize=auto;html=1;exitX=0.5;exitY=0;exitDx=0;exitDy=0;entryX=0;entryY=1;entryDx=0;entryDy=0;curved=1;" edge="1" parent="1" source="nNkdBeNE2QziG8MJv2js-6" target="nNkdBeNE2QziG8MJv2js-71">
          <mxGeometry relative="1" as="geometry">
            <Array as="points">
              <mxPoint x="-297" y="450" />
              <mxPoint x="-30" y="450" />
              <mxPoint x="-30" y="300" />
              <mxPoint x="-3" y="300" />
            </Array>
          </mxGeometry>
        </mxCell>
        <mxCell id="nNkdBeNE2QziG8MJv2js-6" value="Monitoring" style="ellipse;whiteSpace=wrap;html=1;fillColor=#dae8fc;strokeColor=#6c8ebf;" vertex="1" parent="1">
          <mxGeometry x="-387.5" y="491" width="180" height="50" as="geometry" />
        </mxCell>
        <mxCell id="nNkdBeNE2QziG8MJv2js-7" value="" style="group" vertex="1" connectable="0" parent="1">
          <mxGeometry x="-385.3699999999999" y="251" width="158.26999999999998" height="46" as="geometry" />
        </mxCell>
        <mxCell id="nNkdBeNE2QziG8MJv2js-8" value="Upload Raw Data &lt;br&gt;To GCP Bucket" style="rounded=1;whiteSpace=wrap;html=1;fillColor=#ffe6cc;strokeColor=#d79b00;" vertex="1" parent="nNkdBeNE2QziG8MJv2js-7">
          <mxGeometry width="150" height="40" as="geometry" />
        </mxCell>
        <mxCell id="nNkdBeNE2QziG8MJv2js-9" value="" style="sketch=0;html=1;aspect=fixed;strokeColor=none;shadow=0;fillColor=#3B8DF1;verticalAlign=top;labelPosition=center;verticalLabelPosition=bottom;shape=mxgraph.gcp2.bucket_scale" vertex="1" parent="nNkdBeNE2QziG8MJv2js-7">
          <mxGeometry x="120" y="15" width="38.27" height="31" as="geometry" />
        </mxCell>
        <mxCell id="nNkdBeNE2QziG8MJv2js-10" value="" style="group" vertex="1" connectable="0" parent="1">
          <mxGeometry x="-14.230000000000018" y="169.5" width="165.26999999999998" height="55.5" as="geometry" />
        </mxCell>
        <mxCell id="nNkdBeNE2QziG8MJv2js-11" value="Load processed Data&lt;br&gt;From GCP Bucket" style="rounded=1;whiteSpace=wrap;html=1;fillColor=#ffe6cc;strokeColor=#d79b00;" vertex="1" parent="nNkdBeNE2QziG8MJv2js-10">
          <mxGeometry width="150" height="40" as="geometry" />
        </mxCell>
        <mxCell id="nNkdBeNE2QziG8MJv2js-12" value="" style="sketch=0;html=1;aspect=fixed;strokeColor=none;shadow=0;fillColor=#3B8DF1;verticalAlign=top;labelPosition=center;verticalLabelPosition=bottom;shape=mxgraph.gcp2.bucket_scale" vertex="1" parent="nNkdBeNE2QziG8MJv2js-10">
          <mxGeometry x="127" y="24.5" width="38.27" height="31" as="geometry" />
        </mxCell>
        <mxCell id="nNkdBeNE2QziG8MJv2js-13" value="" style="group" vertex="1" connectable="0" parent="1">
          <mxGeometry x="-207.5" y="170" width="158.27" height="55" as="geometry" />
        </mxCell>
        <mxCell id="nNkdBeNE2QziG8MJv2js-14" value="Upload Processed Data &lt;br&gt;To GCP Bucket" style="rounded=1;whiteSpace=wrap;html=1;fillColor=#ffe6cc;strokeColor=#d79b00;" vertex="1" parent="nNkdBeNE2QziG8MJv2js-13">
          <mxGeometry width="150" height="40" as="geometry" />
        </mxCell>
        <mxCell id="nNkdBeNE2QziG8MJv2js-15" value="" style="sketch=0;html=1;aspect=fixed;strokeColor=none;shadow=0;fillColor=#3B8DF1;verticalAlign=top;labelPosition=center;verticalLabelPosition=bottom;shape=mxgraph.gcp2.bucket_scale" vertex="1" parent="nNkdBeNE2QziG8MJv2js-13">
          <mxGeometry x="120" y="24" width="38.27" height="31" as="geometry" />
        </mxCell>
        <mxCell id="nNkdBeNE2QziG8MJv2js-16" value="" style="group" vertex="1" connectable="0" parent="1">
          <mxGeometry x="-385.3699999999999" y="170" width="154" height="50" as="geometry" />
        </mxCell>
        <mxCell id="nNkdBeNE2QziG8MJv2js-17" value="Cleaning and Preprocessing Data" style="rounded=1;whiteSpace=wrap;html=1;fillColor=#ffe6cc;strokeColor=#d79b00;" vertex="1" parent="nNkdBeNE2QziG8MJv2js-16">
          <mxGeometry width="150" height="40" as="geometry" />
        </mxCell>
        <mxCell id="nNkdBeNE2QziG8MJv2js-18" value="" style="sketch=0;outlineConnect=0;fontColor=#232F3E;gradientColor=none;fillColor=#01A88D;strokeColor=none;dashed=0;verticalLabelPosition=bottom;verticalAlign=top;align=center;html=1;fontSize=12;fontStyle=0;aspect=fixed;pointerEvents=1;shape=mxgraph.aws4.sagemaker_model;" vertex="1" parent="nNkdBeNE2QziG8MJv2js-16">
          <mxGeometry x="130" y="26" width="24" height="24" as="geometry" />
        </mxCell>
        <mxCell id="nNkdBeNE2QziG8MJv2js-19" value="" style="group" vertex="1" connectable="0" parent="1">
          <mxGeometry x="-597.5" y="165" width="180" height="60" as="geometry" />
        </mxCell>
        <mxCell id="nNkdBeNE2QziG8MJv2js-20" value="Pipeline Continuous Integration" style="ellipse;whiteSpace=wrap;html=1;fillColor=#dae8fc;strokeColor=#6c8ebf;" vertex="1" parent="nNkdBeNE2QziG8MJv2js-19">
          <mxGeometry width="180" height="50" as="geometry" />
        </mxCell>
        <mxCell id="nNkdBeNE2QziG8MJv2js-21" value="" style="dashed=0;outlineConnect=0;html=1;align=center;labelPosition=center;verticalLabelPosition=bottom;verticalAlign=top;shape=mxgraph.weblogos.github" vertex="1" parent="nNkdBeNE2QziG8MJv2js-19">
          <mxGeometry x="75" y="35" width="30" height="25" as="geometry" />
        </mxCell>
        <mxCell id="nNkdBeNE2QziG8MJv2js-22" value="" style="group" vertex="1" connectable="0" parent="1">
          <mxGeometry x="-14.230000000000018" y="340" width="150" height="49" as="geometry" />
        </mxCell>
        <mxCell id="nNkdBeNE2QziG8MJv2js-23" value="Fit Linear Model" style="rounded=1;whiteSpace=wrap;html=1;fillColor=#ffe6cc;strokeColor=#d79b00;" vertex="1" parent="nNkdBeNE2QziG8MJv2js-22">
          <mxGeometry width="150" height="40" as="geometry" />
        </mxCell>
        <mxCell id="nNkdBeNE2QziG8MJv2js-24" value="" style="sketch=0;outlineConnect=0;fontColor=#232F3E;gradientColor=none;fillColor=#01A88D;strokeColor=none;dashed=0;verticalLabelPosition=bottom;verticalAlign=top;align=center;html=1;fontSize=12;fontStyle=0;aspect=fixed;pointerEvents=1;shape=mxgraph.aws4.sagemaker_model;" vertex="1" parent="nNkdBeNE2QziG8MJv2js-22">
          <mxGeometry x="123" y="25" width="24" height="24" as="geometry" />
        </mxCell>
        <mxCell id="nNkdBeNE2QziG8MJv2js-30" style="edgeStyle=orthogonalEdgeStyle;rounded=0;orthogonalLoop=1;jettySize=auto;html=1;exitX=1;exitY=0.5;exitDx=0;exitDy=0;entryX=0;entryY=0.5;entryDx=0;entryDy=0;" edge="1" parent="1" source="nNkdBeNE2QziG8MJv2js-20" target="nNkdBeNE2QziG8MJv2js-17">
          <mxGeometry relative="1" as="geometry" />
        </mxCell>
        <mxCell id="nNkdBeNE2QziG8MJv2js-31" style="edgeStyle=orthogonalEdgeStyle;rounded=0;orthogonalLoop=1;jettySize=auto;html=1;exitX=0.5;exitY=1;exitDx=0;exitDy=0;entryX=0.5;entryY=0;entryDx=0;entryDy=0;" edge="1" parent="1" source="nNkdBeNE2QziG8MJv2js-17" target="nNkdBeNE2QziG8MJv2js-8">
          <mxGeometry relative="1" as="geometry" />
        </mxCell>
        <mxCell id="nNkdBeNE2QziG8MJv2js-32" style="edgeStyle=orthogonalEdgeStyle;rounded=0;orthogonalLoop=1;jettySize=auto;html=1;exitX=1;exitY=0.5;exitDx=0;exitDy=0;entryX=0;entryY=0.5;entryDx=0;entryDy=0;" edge="1" parent="1" source="nNkdBeNE2QziG8MJv2js-17" target="nNkdBeNE2QziG8MJv2js-14">
          <mxGeometry relative="1" as="geometry" />
        </mxCell>
        <mxCell id="nNkdBeNE2QziG8MJv2js-33" style="edgeStyle=orthogonalEdgeStyle;rounded=0;orthogonalLoop=1;jettySize=auto;html=1;exitX=1;exitY=0.5;exitDx=0;exitDy=0;entryX=0;entryY=0.5;entryDx=0;entryDy=0;" edge="1" parent="1" source="nNkdBeNE2QziG8MJv2js-14" target="nNkdBeNE2QziG8MJv2js-11">
          <mxGeometry relative="1" as="geometry" />
        </mxCell>
        <mxCell id="nNkdBeNE2QziG8MJv2js-35" value="" style="group" vertex="1" connectable="0" parent="1">
          <mxGeometry x="-576.5" y="447" width="158.26999999999998" height="46" as="geometry" />
        </mxCell>
        <mxCell id="nNkdBeNE2QziG8MJv2js-36" value="Upload Raw Data &lt;br&gt;To GCP Bucket" style="rounded=1;whiteSpace=wrap;html=1;fillColor=#ffe6cc;strokeColor=#d79b00;" vertex="1" parent="nNkdBeNE2QziG8MJv2js-35">
          <mxGeometry width="150" height="40" as="geometry" />
        </mxCell>
        <mxCell id="nNkdBeNE2QziG8MJv2js-37" value="" style="sketch=0;html=1;aspect=fixed;strokeColor=none;shadow=0;fillColor=#3B8DF1;verticalAlign=top;labelPosition=center;verticalLabelPosition=bottom;shape=mxgraph.gcp2.bucket_scale" vertex="1" parent="nNkdBeNE2QziG8MJv2js-35">
          <mxGeometry x="120" y="15" width="38.27" height="31" as="geometry" />
        </mxCell>
        <mxCell id="nNkdBeNE2QziG8MJv2js-38" value="" style="group" vertex="1" connectable="0" parent="1">
          <mxGeometry x="-220.5" y="365.5" width="165.26999999999998" height="55.5" as="geometry" />
        </mxCell>
        <mxCell id="nNkdBeNE2QziG8MJv2js-39" value="Load processed Data&lt;br&gt;From GCP Bucket" style="rounded=1;whiteSpace=wrap;html=1;fillColor=#ffe6cc;strokeColor=#d79b00;" vertex="1" parent="nNkdBeNE2QziG8MJv2js-38">
          <mxGeometry width="150" height="40" as="geometry" />
        </mxCell>
        <mxCell id="nNkdBeNE2QziG8MJv2js-40" value="" style="sketch=0;html=1;aspect=fixed;strokeColor=none;shadow=0;fillColor=#3B8DF1;verticalAlign=top;labelPosition=center;verticalLabelPosition=bottom;shape=mxgraph.gcp2.bucket_scale" vertex="1" parent="nNkdBeNE2QziG8MJv2js-38">
          <mxGeometry x="127" y="24.5" width="38.27" height="31" as="geometry" />
        </mxCell>
        <mxCell id="nNkdBeNE2QziG8MJv2js-41" value="" style="group" vertex="1" connectable="0" parent="1">
          <mxGeometry x="-397.5" y="366" width="158.27" height="55" as="geometry" />
        </mxCell>
        <mxCell id="nNkdBeNE2QziG8MJv2js-42" value="Upload Processed Data &lt;br&gt;To GCP Bucket" style="rounded=1;whiteSpace=wrap;html=1;fillColor=#ffe6cc;strokeColor=#d79b00;" vertex="1" parent="nNkdBeNE2QziG8MJv2js-41">
          <mxGeometry width="150" height="40" as="geometry" />
        </mxCell>
        <mxCell id="nNkdBeNE2QziG8MJv2js-43" value="" style="sketch=0;html=1;aspect=fixed;strokeColor=none;shadow=0;fillColor=#3B8DF1;verticalAlign=top;labelPosition=center;verticalLabelPosition=bottom;shape=mxgraph.gcp2.bucket_scale" vertex="1" parent="nNkdBeNE2QziG8MJv2js-41">
          <mxGeometry x="120" y="24" width="38.27" height="31" as="geometry" />
        </mxCell>
        <mxCell id="nNkdBeNE2QziG8MJv2js-44" value="" style="group" vertex="1" connectable="0" parent="1">
          <mxGeometry x="-576.5" y="366" width="154" height="50" as="geometry" />
        </mxCell>
        <mxCell id="nNkdBeNE2QziG8MJv2js-45" value="Cleaning and Preprocessing Data" style="rounded=1;whiteSpace=wrap;html=1;fillColor=#ffe6cc;strokeColor=#d79b00;" vertex="1" parent="nNkdBeNE2QziG8MJv2js-44">
          <mxGeometry width="150" height="40" as="geometry" />
        </mxCell>
        <mxCell id="nNkdBeNE2QziG8MJv2js-46" value="" style="sketch=0;outlineConnect=0;fontColor=#232F3E;gradientColor=none;fillColor=#01A88D;strokeColor=none;dashed=0;verticalLabelPosition=bottom;verticalAlign=top;align=center;html=1;fontSize=12;fontStyle=0;aspect=fixed;pointerEvents=1;shape=mxgraph.aws4.sagemaker_model;" vertex="1" parent="nNkdBeNE2QziG8MJv2js-44">
          <mxGeometry x="130" y="26" width="24" height="24" as="geometry" />
        </mxCell>
        <mxCell id="nNkdBeNE2QziG8MJv2js-47" value="" style="group" vertex="1" connectable="0" parent="1">
          <mxGeometry x="-777.5" y="141" width="150" height="190" as="geometry" />
        </mxCell>
        <mxCell id="nNkdBeNE2QziG8MJv2js-48" value="&lt;div style=&quot;&quot;&gt;- Pull Request&lt;span style=&quot;background-color: initial;&quot;&gt;&amp;nbsp;in Github Version Control&lt;/span&gt;&lt;/div&gt;&lt;div style=&quot;&quot;&gt;&lt;br&gt;&lt;/div&gt;&lt;div style=&quot;&quot;&gt;&lt;br&gt;&lt;/div&gt;&lt;div style=&quot;&quot;&gt;&lt;br&gt;&lt;/div&gt;&lt;div style=&quot;&quot;&gt;&lt;br&gt;&lt;/div&gt;&lt;div style=&quot;&quot;&gt;&lt;br&gt;&lt;/div&gt;&lt;div style=&quot;&quot;&gt;- Scheduled Update&lt;/div&gt;&lt;div style=&quot;&quot;&gt;(New Dataset)&lt;/div&gt;" style="rounded=0;whiteSpace=wrap;html=1;fillColor=#d5e8d4;strokeColor=#82b366;align=center;" vertex="1" parent="nNkdBeNE2QziG8MJv2js-47">
          <mxGeometry x="25" width="100" height="190" as="geometry" />
        </mxCell>
        <mxCell id="nNkdBeNE2QziG8MJv2js-49" value="Triggers" style="rounded=1;whiteSpace=wrap;html=1;fillColor=#ffe6cc;strokeColor=#d79b00;" vertex="1" parent="nNkdBeNE2QziG8MJv2js-47">
          <mxGeometry y="73.35555555555554" width="150" height="43.297491039426525" as="geometry" />
        </mxCell>
        <mxCell id="nNkdBeNE2QziG8MJv2js-50" value="" style="dashed=0;outlineConnect=0;html=1;align=center;labelPosition=center;verticalLabelPosition=bottom;verticalAlign=top;shape=mxgraph.weblogos.github" vertex="1" parent="nNkdBeNE2QziG8MJv2js-47">
          <mxGeometry x="110" y="94.12759856630821" width="30" height="27.060931899641577" as="geometry" />
        </mxCell>
        <mxCell id="nNkdBeNE2QziG8MJv2js-52" style="rounded=0;orthogonalLoop=1;jettySize=auto;html=1;exitX=1;exitY=0.25;exitDx=0;exitDy=0;entryX=0;entryY=0.5;entryDx=0;entryDy=0;" edge="1" parent="1" source="nNkdBeNE2QziG8MJv2js-48" target="nNkdBeNE2QziG8MJv2js-20">
          <mxGeometry relative="1" as="geometry" />
        </mxCell>
        <mxCell id="nNkdBeNE2QziG8MJv2js-53" style="edgeStyle=orthogonalEdgeStyle;rounded=0;orthogonalLoop=1;jettySize=auto;html=1;exitX=1;exitY=0.25;exitDx=0;exitDy=0;entryX=0;entryY=0.5;entryDx=0;entryDy=0;" edge="1" parent="1" source="nNkdBeNE2QziG8MJv2js-48" target="nNkdBeNE2QziG8MJv2js-68">
          <mxGeometry relative="1" as="geometry">
            <Array as="points">
              <mxPoint x="-617.5" y="188" />
              <mxPoint x="-617.5" y="270" />
            </Array>
          </mxGeometry>
        </mxCell>
        <mxCell id="nNkdBeNE2QziG8MJv2js-54" style="edgeStyle=orthogonalEdgeStyle;rounded=0;orthogonalLoop=1;jettySize=auto;html=1;exitX=0.5;exitY=1;exitDx=0;exitDy=0;entryX=0.5;entryY=0;entryDx=0;entryDy=0;" edge="1" parent="1" source="nNkdBeNE2QziG8MJv2js-48" target="nNkdBeNE2QziG8MJv2js-3">
          <mxGeometry relative="1" as="geometry" />
        </mxCell>
        <mxCell id="nNkdBeNE2QziG8MJv2js-55" style="edgeStyle=orthogonalEdgeStyle;rounded=0;orthogonalLoop=1;jettySize=auto;html=1;exitX=0.5;exitY=1;exitDx=0;exitDy=0;entryX=0.5;entryY=0;entryDx=0;entryDy=0;" edge="1" parent="1" source="nNkdBeNE2QziG8MJv2js-45" target="nNkdBeNE2QziG8MJv2js-36">
          <mxGeometry relative="1" as="geometry" />
        </mxCell>
        <mxCell id="nNkdBeNE2QziG8MJv2js-56" style="edgeStyle=orthogonalEdgeStyle;rounded=0;orthogonalLoop=1;jettySize=auto;html=1;exitX=1;exitY=0.5;exitDx=0;exitDy=0;entryX=0;entryY=0.5;entryDx=0;entryDy=0;" edge="1" parent="1" source="nNkdBeNE2QziG8MJv2js-42" target="nNkdBeNE2QziG8MJv2js-39">
          <mxGeometry relative="1" as="geometry" />
        </mxCell>
        <mxCell id="nNkdBeNE2QziG8MJv2js-57" style="edgeStyle=orthogonalEdgeStyle;rounded=0;orthogonalLoop=1;jettySize=auto;html=1;exitX=1;exitY=0.5;exitDx=0;exitDy=0;entryX=0;entryY=0.5;entryDx=0;entryDy=0;" edge="1" parent="1" source="nNkdBeNE2QziG8MJv2js-45" target="nNkdBeNE2QziG8MJv2js-42">
          <mxGeometry relative="1" as="geometry" />
        </mxCell>
        <mxCell id="nNkdBeNE2QziG8MJv2js-59" value="" style="group" vertex="1" connectable="0" parent="1">
          <mxGeometry x="-28.960000000000036" y="416" width="180" height="62" as="geometry" />
        </mxCell>
        <mxCell id="nNkdBeNE2QziG8MJv2js-60" value="Continuous Delivery of&lt;br&gt;&amp;nbsp;The Prediction Model" style="ellipse;whiteSpace=wrap;html=1;fillColor=#dae8fc;strokeColor=#6c8ebf;" vertex="1" parent="nNkdBeNE2QziG8MJv2js-59">
          <mxGeometry width="180" height="50" as="geometry" />
        </mxCell>
        <mxCell id="nNkdBeNE2QziG8MJv2js-61" value="" style="dashed=0;outlineConnect=0;html=1;align=center;labelPosition=center;verticalLabelPosition=bottom;verticalAlign=top;shape=mxgraph.weblogos.github" vertex="1" parent="nNkdBeNE2QziG8MJv2js-59">
          <mxGeometry x="75" y="37" width="30" height="25" as="geometry" />
        </mxCell>
        <mxCell id="nNkdBeNE2QziG8MJv2js-62" style="edgeStyle=orthogonalEdgeStyle;rounded=0;orthogonalLoop=1;jettySize=auto;html=1;exitX=0.5;exitY=1;exitDx=0;exitDy=0;entryX=1;entryY=0.5;entryDx=0;entryDy=0;" edge="1" parent="1" source="nNkdBeNE2QziG8MJv2js-60" target="nNkdBeNE2QziG8MJv2js-74">
          <mxGeometry relative="1" as="geometry" />
        </mxCell>
        <mxCell id="nNkdBeNE2QziG8MJv2js-65" value="&lt;font style=&quot;font-size: 25px;&quot;&gt;&lt;b&gt;CI/CD Pipeline in Automated Solar Power Prediction&lt;/b&gt;&lt;/font&gt;" style="rounded=0;whiteSpace=wrap;html=1;fillColor=none;strokeColor=none;" vertex="1" parent="1">
          <mxGeometry x="-567.5" y="35" width="629" height="93.47" as="geometry" />
        </mxCell>
        <mxCell id="nNkdBeNE2QziG8MJv2js-67" value="" style="group" vertex="1" connectable="0" parent="1">
          <mxGeometry x="-597.5" y="244.85000000000002" width="180" height="68.45999999999998" as="geometry" />
        </mxCell>
        <mxCell id="nNkdBeNE2QziG8MJv2js-68" value="Manage GCP Buckets&lt;br&gt;(Terraform)" style="ellipse;whiteSpace=wrap;html=1;fillColor=#dae8fc;strokeColor=#6c8ebf;" vertex="1" parent="nNkdBeNE2QziG8MJv2js-67">
          <mxGeometry width="180" height="50" as="geometry" />
        </mxCell>
        <mxCell id="nNkdBeNE2QziG8MJv2js-69" value="" style="dashed=0;outlineConnect=0;html=1;align=center;labelPosition=center;verticalLabelPosition=bottom;verticalAlign=top;shape=mxgraph.weblogos.github" vertex="1" parent="nNkdBeNE2QziG8MJv2js-67">
          <mxGeometry x="75" y="43.45999999999998" width="30" height="25" as="geometry" />
        </mxCell>
        <mxCell id="nNkdBeNE2QziG8MJv2js-73" value="" style="group" vertex="1" connectable="0" parent="1">
          <mxGeometry x="-179.23000000000002" y="496" width="150" height="54" as="geometry" />
        </mxCell>
        <mxCell id="nNkdBeNE2QziG8MJv2js-74" value="Solar Energy Forecast" style="rounded=1;whiteSpace=wrap;html=1;fillColor=#ffe6cc;strokeColor=#d79b00;" vertex="1" parent="nNkdBeNE2QziG8MJv2js-73">
          <mxGeometry width="150" height="40" as="geometry" />
        </mxCell>
        <mxCell id="nNkdBeNE2QziG8MJv2js-75" value="" style="sketch=0;outlineConnect=0;fontColor=#232F3E;gradientColor=none;fillColor=#01A88D;strokeColor=none;dashed=0;verticalLabelPosition=bottom;verticalAlign=top;align=center;html=1;fontSize=12;fontStyle=0;aspect=fixed;pointerEvents=1;shape=mxgraph.aws4.sagemaker_model;" vertex="1" parent="nNkdBeNE2QziG8MJv2js-73">
          <mxGeometry x="124" y="30" width="24" height="24" as="geometry" />
        </mxCell>
        <mxCell id="nNkdBeNE2QziG8MJv2js-76" style="edgeStyle=orthogonalEdgeStyle;rounded=0;orthogonalLoop=1;jettySize=auto;html=1;exitX=0.5;exitY=0;exitDx=0;exitDy=0;entryX=0;entryY=0.5;entryDx=0;entryDy=0;" edge="1" parent="1" source="nNkdBeNE2QziG8MJv2js-39" target="nNkdBeNE2QziG8MJv2js-71">
          <mxGeometry relative="1" as="geometry" />
        </mxCell>
        <mxCell id="nNkdBeNE2QziG8MJv2js-77" style="edgeStyle=orthogonalEdgeStyle;rounded=0;orthogonalLoop=1;jettySize=auto;html=1;exitX=0.5;exitY=1;exitDx=0;exitDy=0;entryX=0.5;entryY=0;entryDx=0;entryDy=0;" edge="1" parent="1" source="nNkdBeNE2QziG8MJv2js-23" target="nNkdBeNE2QziG8MJv2js-60">
          <mxGeometry relative="1" as="geometry" />
        </mxCell>
        <mxCell id="nNkdBeNE2QziG8MJv2js-78" style="edgeStyle=orthogonalEdgeStyle;rounded=0;orthogonalLoop=1;jettySize=auto;html=1;exitX=0.5;exitY=1;exitDx=0;exitDy=0;entryX=0.5;entryY=0;entryDx=0;entryDy=0;" edge="1" parent="1" source="nNkdBeNE2QziG8MJv2js-71" target="nNkdBeNE2QziG8MJv2js-23">
          <mxGeometry relative="1" as="geometry" />
        </mxCell>
        <mxCell id="nNkdBeNE2QziG8MJv2js-80" value="" style="group" vertex="1" connectable="0" parent="1">
          <mxGeometry x="-28.96000000000002" y="243.5" width="180" height="61" as="geometry" />
        </mxCell>
        <mxCell id="nNkdBeNE2QziG8MJv2js-71" value="Continuous Training" style="ellipse;whiteSpace=wrap;html=1;fillColor=#dae8fc;strokeColor=#6c8ebf;" vertex="1" parent="nNkdBeNE2QziG8MJv2js-80">
          <mxGeometry width="180" height="50" as="geometry" />
        </mxCell>
        <mxCell id="nNkdBeNE2QziG8MJv2js-79" value="" style="dashed=0;outlineConnect=0;html=1;align=center;labelPosition=center;verticalLabelPosition=bottom;verticalAlign=top;shape=mxgraph.weblogos.github" vertex="1" parent="nNkdBeNE2QziG8MJv2js-80">
          <mxGeometry x="75" y="36" width="30" height="25" as="geometry" />
        </mxCell>
        <mxCell id="nNkdBeNE2QziG8MJv2js-82" value="" style="group" vertex="1" connectable="0" parent="1">
          <mxGeometry x="-780" y="56.73" width="155" height="49.99999999999999" as="geometry" />
        </mxCell>
        <mxCell id="nNkdBeNE2QziG8MJv2js-26" value="Development" style="ellipse;whiteSpace=wrap;html=1;fillColor=#dae8fc;strokeColor=#6c8ebf;" vertex="1" parent="nNkdBeNE2QziG8MJv2js-82">
          <mxGeometry width="155" height="50" as="geometry" />
        </mxCell>
        <mxCell id="nNkdBeNE2QziG8MJv2js-66" value="" style="shape=image;html=1;verticalAlign=top;verticalLabelPosition=bottom;labelBackgroundColor=#ffffff;imageAspect=0;aspect=fixed;image=https://cdn1.iconfinder.com/data/icons/ionicons-fill-vol-2/512/logo-python-128.png" vertex="1" parent="nNkdBeNE2QziG8MJv2js-82">
          <mxGeometry x="127.5" y="24.999999999999993" width="25" height="25" as="geometry" />
        </mxCell>
        <mxCell id="nNkdBeNE2QziG8MJv2js-83" style="edgeStyle=orthogonalEdgeStyle;rounded=0;orthogonalLoop=1;jettySize=auto;html=1;exitX=0.5;exitY=1;exitDx=0;exitDy=0;entryX=0.5;entryY=0;entryDx=0;entryDy=0;" edge="1" parent="1" source="nNkdBeNE2QziG8MJv2js-26" target="nNkdBeNE2QziG8MJv2js-48">
          <mxGeometry relative="1" as="geometry" />
        </mxCell>
        <mxCell id="nNkdBeNE2QziG8MJv2js-84" style="edgeStyle=orthogonalEdgeStyle;rounded=0;orthogonalLoop=1;jettySize=auto;html=1;exitX=0.5;exitY=1;exitDx=0;exitDy=0;entryX=0.5;entryY=0;entryDx=0;entryDy=0;" edge="1" parent="1" source="nNkdBeNE2QziG8MJv2js-11" target="nNkdBeNE2QziG8MJv2js-71">
          <mxGeometry relative="1" as="geometry" />
        </mxCell>
      </root>
    </mxGraphModel>
  </diagram>
</mxfile>
